<svg xmlns="http://www.w3.org/2000/svg" width="63.052" height="62.381" viewBox="0 0 63.052 62.381">
  <path id="Path_1818925" data-name="Path 1818925" d="M56.286,20.4l-.309-1.431a4.673,4.673,0,0,0,1.073-2.847.982.982,0,0,0,1.128-.973V11.316a4.27,4.27,0,0,0-1.887-3.6,6.721,6.721,0,0,0-3.807-1.085c-2.953,0-5.943,1.608-5.943,4.681v3.836a.983.983,0,0,0,.984.984,1.1,1.1,0,0,0,.143-.011,4.681,4.681,0,0,0,1.069,2.845L48.428,20.4A7.273,7.273,0,0,0,43,23.207a7.983,7.983,0,0,0-7.09-4.633l-.393-1.829a5.225,5.225,0,0,0,1.244-3.387v-.026a.982.982,0,0,0,1.291-.934V7.993a4.762,4.762,0,0,0-2.106-4.013A7.579,7.579,0,0,0,31.651,2.76c-3.32,0-6.681,1.8-6.681,5.234V12.4a.985.985,0,0,0,.984.985.957.957,0,0,0,.213-.023.737.737,0,0,0,.1-.027v.026a5.222,5.222,0,0,0,1.244,3.387l-.393,1.828a7.981,7.981,0,0,0-7.09,4.633,7.273,7.273,0,0,0-5.431-2.8l-.309-1.434a4.666,4.666,0,0,0,1.069-2.845.98.98,0,0,0,1.127-.972V11.316a4.27,4.27,0,0,0-1.887-3.6,6.721,6.721,0,0,0-3.807-1.085c-2.953,0-5.943,1.608-5.943,4.681v3.836a.985.985,0,0,0,.984.985,1.1,1.1,0,0,0,.143-.011,4.671,4.671,0,0,0,1.07,2.844l-.309,1.435A6.876,6.876,0,0,0-.02,27.328v6.284A31.957,31.957,0,0,0,.491,39.3a.983.983,0,0,0,.706.772l5.763,1.6a26,26,0,0,0,1.49,3.6l-2.942,5.2a.984.984,0,0,0,.047,1.044A31.507,31.507,0,0,0,13.6,59.562a.984.984,0,0,0,1.044.047l5.2-2.942a25.665,25.665,0,0,0,3.6,1.491l1.6,5.763a.984.984,0,0,0,.771.7,31.608,31.608,0,0,0,11.376,0,.986.986,0,0,0,.771-.7l1.6-5.763a25.836,25.836,0,0,0,3.6-1.49l5.2,2.942a.984.984,0,0,0,1.044-.047,31.566,31.566,0,0,0,8.046-8.046.984.984,0,0,0,.047-1.044l-2.942-5.2a25.826,25.826,0,0,0,1.49-3.6l5.763-1.6a.987.987,0,0,0,.706-.772,31.863,31.863,0,0,0,.511-5.685V27.329A6.867,6.867,0,0,0,56.286,20.4ZM54.56,21.739a3.077,3.077,0,0,1-2.2.714,3.008,3.008,0,0,1-2.2-.717l.313-1.455a4.679,4.679,0,0,0,3.776,0Zm-3.636-7.563c1.025-.652,1.712-1.094,2.176-1.4a7.973,7.973,0,0,0,1.982,2.207v1a2.715,2.715,0,0,1-.8,1.93.963.963,0,0,0-.1.091A2.721,2.721,0,0,1,50.52,18c-.023-.025-.048-.048-.074-.071a2.712,2.712,0,0,1-.814-1.94V15l1.292-.821Zm-2.416-2.86c0-1.99,2.376-2.712,3.973-2.712a4.81,4.81,0,0,1,2.684.734,2.292,2.292,0,0,1,1.041,1.979v2.052a5.905,5.905,0,0,1-1.822-2.4.983.983,0,0,0-1.524-.389c-.287.216-2.718,1.769-4.353,2.8ZM48.267,22.4c.531,1.2,2.164,2.027,4.089,2.027s3.558-.823,4.091-2.027a4.88,4.88,0,0,1,4.622,4.931v5.3H58.884v-4.94a.984.984,0,1,0-1.968,0v4.94H47.8v-4.94a.984.984,0,1,0-1.968,0v4.94H43.644v-5.3A4.875,4.875,0,0,1,48.267,22.4Zm-27.9,12.2H46.548a15.069,15.069,0,0,1-30.073,0ZM34.2,20.005a3.5,3.5,0,0,1-2.69.93,3.492,3.492,0,0,1-2.686-.93l.413-1.918a5.235,5.235,0,0,0,4.551,0ZM26.94,7.993c0-2.143,2.371-3.265,4.712-3.265a5.6,5.6,0,0,1,3.168.87,2.775,2.775,0,0,1,1.26,2.4v2.654a6.983,6.983,0,0,1-2.373-3,.983.983,0,0,0-.672-.576.963.963,0,0,0-.236-.028.988.988,0,0,0-.619.219c-.31.235-3.352,2.18-5.239,3.37V7.993Zm2.846,3.162c1.276-.812,2.1-1.34,2.629-1.687a9.032,9.032,0,0,0,2.372,2.668v1.223a3.275,3.275,0,0,1-5.5,2.41c-.02-.02-.039-.039-.06-.058a3.268,3.268,0,0,1-1-2.352V12.139C28.653,11.875,29.162,11.551,29.786,11.155ZM21.351,26.391a5.761,5.761,0,0,1,5.555-5.826c.537,1.384,2.4,2.338,4.6,2.338s4.07-.953,4.609-2.338a5.761,5.761,0,0,1,5.555,5.826v6.236H38.867V26.8a.984.984,0,0,0-1.968,0v5.823H26.128V26.8a.984.984,0,0,0-1.968,0v5.823H21.351Zm-8.483-4.654a3.009,3.009,0,0,1-2.2.717,3.071,3.071,0,0,1-2.2-.714l.314-1.458a4.676,4.676,0,0,0,3.777,0ZM9.232,14.176c1.025-.652,1.712-1.094,2.176-1.4a7.986,7.986,0,0,0,1.982,2.206v1a2.712,2.712,0,0,1-.814,1.94A1,1,0,0,0,12.5,18a2.724,2.724,0,0,1-4.562-2.01V15l1.292-.821Zm-2.415-2.86c0-1.99,2.376-2.712,3.973-2.712a4.81,4.81,0,0,1,2.684.734,2.292,2.292,0,0,1,1.041,1.979v2.051a5.9,5.9,0,0,1-1.822-2.4.983.983,0,0,0-1.524-.389c-.287.216-2.719,1.769-4.353,2.8ZM1.953,27.327A4.879,4.879,0,0,1,6.575,22.4c.533,1.2,2.169,2.027,4.091,2.027s3.558-.823,4.089-2.027a4.878,4.878,0,0,1,4.625,4.931v5.3H17.2v-4.94a.984.984,0,0,0-1.968,0v4.94H6.108v-4.94a.984.984,0,0,0-1.968,0v4.94H1.953ZM55.018,39.914a.987.987,0,0,0-.679.661,23.977,23.977,0,0,1-1.76,4.252.984.984,0,0,0,.012.947l2.9,5.124a29.575,29.575,0,0,1-6.69,6.69l-5.126-2.9a.983.983,0,0,0-.948-.011,23.831,23.831,0,0,1-4.248,1.76.987.987,0,0,0-.661.679l-1.575,5.676a29.819,29.819,0,0,1-9.458,0l-1.575-5.676a.982.982,0,0,0-.663-.679A23.616,23.616,0,0,1,20.3,54.68a.986.986,0,0,0-.948.011l-5.127,2.9a29.525,29.525,0,0,1-6.69-6.69l2.9-5.124a.984.984,0,0,0,.012-.947,23.94,23.94,0,0,1-1.76-4.252.987.987,0,0,0-.679-.661L2.331,38.34A29.726,29.726,0,0,1,1.973,34.6H14.5a17.038,17.038,0,0,0,34.018,0h12.53a29.978,29.978,0,0,1-.358,3.743Z" transform="translate(0.021 -2.76)" fill="#00649e"/>
</svg>
