<svg xmlns="http://www.w3.org/2000/svg" width="63.8" height="64" viewBox="0 0 63.8 64">
  <g id="Group_1197389" data-name="Group 1197389" transform="translate(-961 -5884)">
    <g id="data-protection" transform="translate(959.9 5883)">
      <g id="Group_1197324" data-name="Group 1197324">
        <path id="Path_1801960" data-name="Path 1801960" d="M54.6,35.8H47a1,1,0,0,1,0-2h7.6a8.3,8.3,0,1,0,0-16.6,1,1,0,0,1,0-2,10.3,10.3,0,1,1,0,20.6Z" fill="#00649e"/>
      </g>
      <g id="Group_1197325" data-name="Group 1197325">
        <path id="Path_1801961" data-name="Path 1801961" d="M19,35.8H11.5a10.3,10.3,0,1,1,0-20.6,1,1,0,0,1,0,2,8.3,8.3,0,1,0,0,16.6H19a.945.945,0,0,1,1,1A1,1,0,0,1,19,35.8Z" fill="#00649e"/>
      </g>
      <g id="Group_1197326" data-name="Group 1197326">
        <path id="Path_1801962" data-name="Path 1801962" d="M11.6,17.2a.945.945,0,0,1-1-1,8.92,8.92,0,0,1,8.9-8.9,9.318,9.318,0,0,1,5.1,1.6,11.2,11.2,0,0,1,21.9,3.3,1,1,0,1,1-2,0,9.2,9.2,0,0,0-18.4,0,1,1,0,0,1-2,0V11a7.069,7.069,0,0,0-4.6-1.7,6.914,6.914,0,0,0-6.9,6.9,1,1,0,0,1-1,1Z" fill="#00649e"/>
      </g>
      <g id="Group_1197327" data-name="Group 1197327">
        <path id="Path_1801963" data-name="Path 1801963" d="M54.5,17.2h-.2a1.037,1.037,0,0,1-.8-1.2,3.4,3.4,0,0,0,.1-1,5.549,5.549,0,0,0-5.5-5.5,5.382,5.382,0,0,0-2.2.4.985.985,0,0,1-.8-1.8A7.173,7.173,0,0,1,48,7.5,7.49,7.49,0,0,1,55.5,15a5.7,5.7,0,0,1-.1,1.3.967.967,0,0,1-.9.9Z" fill="#00649e"/>
      </g>
      <g id="Group_1197328" data-name="Group 1197328">
        <path id="Path_1801964" data-name="Path 1801964" d="M42.2,51.9H23.8a6.018,6.018,0,0,1-6-6V36a6.219,6.219,0,0,1,4.3-5.8l4.6-1.3a22.5,22.5,0,0,1,12.6,0l4.6,1.3A6.03,6.03,0,0,1,48.2,36v9.9A6.018,6.018,0,0,1,42.2,51.9ZM33,30a21.789,21.789,0,0,0-5.7.8l-4.6,1.3a4.052,4.052,0,0,0-2.9,3.8v9.9a4.012,4.012,0,0,0,4,4H42.2a4.012,4.012,0,0,0,4-4V36a3.96,3.96,0,0,0-2.9-3.8l-4.6-1.3A18.363,18.363,0,0,0,33,30Z" fill="#00649e"/>
      </g>
      <g id="Group_1197329" data-name="Group 1197329">
        <path id="Path_1801965" data-name="Path 1801965" d="M42,31.8h-.3l-5.5-1.4a.993.993,0,0,1-.7-1V23.3A2.326,2.326,0,0,0,33.2,21,2.182,2.182,0,0,0,31,23.3v6a.974.974,0,0,1-.8,1l-5.5,1.4a1.02,1.02,0,0,1-.9-.2,1.234,1.234,0,0,1-.4-.8V23.3a9.8,9.8,0,1,1,19.6,0v7.5a.909.909,0,0,1-.4.8A1.421,1.421,0,0,1,42,31.8Zm-4.5-3.2,3.5.9V23.3a7.8,7.8,0,1,0-15.6,0v6.1l3.5-.9V23.3a4.3,4.3,0,1,1,8.6,0Z" fill="#00649e"/>
      </g>
      <g id="Group_1197330" data-name="Group 1197330">
        <path id="Path_1801966" data-name="Path 1801966" d="M56.5,42.7H47.1a1,1,0,0,1,0-2h9.4a1,1,0,0,1,0,2Z" fill="#00649e"/>
      </g>
      <g id="Group_1197331" data-name="Group 1197331">
        <path id="Path_1801967" data-name="Path 1801967" d="M60.2,46.3a4.7,4.7,0,1,1,4.7-4.7A4.695,4.695,0,0,1,60.2,46.3Zm0-7.3a2.7,2.7,0,1,0,2.7,2.7A2.689,2.689,0,0,0,60.2,39Z" fill="#00649e"/>
      </g>
      <g id="Group_1197332" data-name="Group 1197332">
        <path id="Path_1801968" data-name="Path 1801968" d="M33,56.4a.945.945,0,0,1-1-1V51a1,1,0,0,1,2,0v4.4A1,1,0,0,1,33,56.4Z" fill="#00649e"/>
      </g>
      <g id="Group_1197333" data-name="Group 1197333">
        <path id="Path_1801969" data-name="Path 1801969" d="M33,63.7A4.7,4.7,0,1,1,37.7,59,4.695,4.695,0,0,1,33,63.7Zm0-7.3a2.7,2.7,0,1,0,2.7,2.7A2.689,2.689,0,0,0,33,56.4Z" fill="#00649e"/>
      </g>
      <g id="Group_1197334" data-name="Group 1197334">
        <path id="Path_1801970" data-name="Path 1801970" d="M18.8,43H9.5a1,1,0,0,1,0-2h9.4a.945.945,0,0,1,1,1,1.028,1.028,0,0,1-1.1,1Z" fill="#00649e"/>
      </g>
      <g id="Group_1197335" data-name="Group 1197335">
        <path id="Path_1801971" data-name="Path 1801971" d="M6.3,54.7a.945.945,0,0,1-1-1V49.8a.945.945,0,0,1,1-1h6.8l4.9-3a1.012,1.012,0,0,1,1.1,1.7L14,50.6a.9.9,0,0,1-.5.1H7.3v2.9a1.028,1.028,0,0,1-1,1.1Z" fill="#00649e"/>
      </g>
      <g id="Group_1197336" data-name="Group 1197336">
        <path id="Path_1801972" data-name="Path 1801972" d="M5.8,46.3a4.7,4.7,0,0,1-4.7-4.7A4.61,4.61,0,0,1,5.8,37a4.7,4.7,0,0,1,4.7,4.7A4.61,4.61,0,0,1,5.8,46.3Zm0-7.3a2.7,2.7,0,1,0,2.7,2.7A2.689,2.689,0,0,0,5.8,39Z" fill="#00649e"/>
      </g>
      <g id="Group_1197337" data-name="Group 1197337">
        <path id="Path_1801973" data-name="Path 1801973" d="M6.3,62A4.7,4.7,0,1,1,11,57.3,4.695,4.695,0,0,1,6.3,62Zm0-7.3a2.65,2.65,0,1,0,0,5.3A2.754,2.754,0,0,0,9,57.3,2.606,2.606,0,0,0,6.3,54.7Z" fill="#00649e"/>
      </g>
      <g id="Group_1197338" data-name="Group 1197338">
        <path id="Path_1801974" data-name="Path 1801974" d="M59.4,54.7a.945.945,0,0,1-1-1V50.8H52.3a4.331,4.331,0,0,1-.5-.1l-5.1-3.1a1.012,1.012,0,1,1,1.1-1.7l4.9,3h6.8a.945.945,0,0,1,1,1v3.9a1.3,1.3,0,0,1-1.1.9Z" fill="#00649e"/>
      </g>
      <g id="Group_1197339" data-name="Group 1197339">
        <path id="Path_1801975" data-name="Path 1801975" d="M59.4,62a4.7,4.7,0,1,1,4.7-4.7A4.695,4.695,0,0,1,59.4,62Zm0-7.3a2.7,2.7,0,1,0,2.7,2.7A2.689,2.689,0,0,0,59.4,54.7Z" fill="#00649e"/>
      </g>
      <g id="Group_1197340" data-name="Group 1197340">
        <path id="Path_1801976" data-name="Path 1801976" d="M21.5,59.3a.909.909,0,0,1-.8-.4.984.984,0,0,1,.3-1.4l3.1-2.2V51.4a1,1,0,0,1,2,0v4.5a1.235,1.235,0,0,1-.4.8L22,59.1a.764.764,0,0,1-.5.2Z" fill="#00649e"/>
      </g>
      <g id="Group_1197341" data-name="Group 1197341">
        <path id="Path_1801977" data-name="Path 1801977" d="M18.5,65a4.7,4.7,0,1,1,4.7-4.7A4.76,4.76,0,0,1,18.5,65Zm0-7.3a2.689,2.689,0,0,0-2.7,2.7A2.606,2.606,0,0,0,18.5,63a2.65,2.65,0,1,0,0-5.3Z" fill="#00649e"/>
      </g>
      <g id="Group_1197342" data-name="Group 1197342">
        <path id="Path_1801978" data-name="Path 1801978" d="M44.6,59.3a1.421,1.421,0,0,1-.6-.2l-3.6-2.5a.909.909,0,0,1-.4-.8V51.3a1,1,0,0,1,2,0v3.9l3.1,2.2a.984.984,0,0,1,.3,1.4.792.792,0,0,1-.8.5Z" fill="#00649e"/>
      </g>
      <g id="Group_1197343" data-name="Group 1197343">
        <path id="Path_1801979" data-name="Path 1801979" d="M47.6,65a4.7,4.7,0,1,1,4.7-4.7A4.695,4.695,0,0,1,47.6,65Zm0-7.3a2.7,2.7,0,1,0,2.7,2.7A2.689,2.689,0,0,0,47.6,57.7Z" fill="#00649e"/>
      </g>
      <g id="Group_1197348" data-name="Group 1197348">
        <g id="Group_1197344" data-name="Group 1197344">
          <path id="Path_1801980" data-name="Path 1801980" d="M42.8,38.8a.908.908,0,0,1-.7-.3A12.955,12.955,0,0,0,33,34.7a12.545,12.545,0,0,0-9.1,3.8.99.99,0,1,1-1.4-1.4A14.754,14.754,0,0,1,33,32.7a14.354,14.354,0,0,1,10.5,4.4.967.967,0,0,1,0,1.4A.908.908,0,0,1,42.8,38.8Z" fill="#00649e"/>
        </g>
        <g id="Group_1197345" data-name="Group 1197345">
          <path id="Path_1801981" data-name="Path 1801981" d="M40,41.6a.908.908,0,0,1-.7-.3,8.873,8.873,0,0,0-12.6,0,.99.99,0,1,1-1.4-1.4,10.986,10.986,0,0,1,15.4,0,.967.967,0,0,1,0,1.4,1.08,1.08,0,0,1-.7.3Z" fill="#00649e"/>
        </g>
        <g id="Group_1197346" data-name="Group 1197346">
          <path id="Path_1801982" data-name="Path 1801982" d="M37.2,44.4a.908.908,0,0,1-.7-.3,4.889,4.889,0,0,0-6.9,0,.99.99,0,0,1-1.4-1.4,6.8,6.8,0,0,1,4.9-2,6.966,6.966,0,0,1,4.9,2,.967.967,0,0,1,0,1.4,1.6,1.6,0,0,1-.8.3Z" fill="#00649e"/>
        </g>
        <g id="Group_1197347" data-name="Group 1197347">
          <path id="Path_1801983" data-name="Path 1801983" d="M31.7,47.3A.908.908,0,0,1,31,47a.967.967,0,0,1,0-1.4,2.959,2.959,0,0,1,4.1,0A.99.99,0,1,1,33.7,47a1.049,1.049,0,0,0-1.3,0,1.08,1.08,0,0,1-.7.3Z" fill="#00649e"/>
        </g>
      </g>
    </g>
  </g>
</svg>
