<svg xmlns="http://www.w3.org/2000/svg" width="65.962" height="65.22" viewBox="0 0 65.962 65.22">
  <path id="Path_1818930" data-name="Path 1818930" d="M34.914,64.622a16.062,16.062,0,0,0-6.053-3.443,8.664,8.664,0,1,0-9.479,0A16.108,16.108,0,0,0,8.118,74.834a1.064,1.064,0,0,0,1.058,1.177H39.068a1.064,1.064,0,0,0,1.058-1.177A16.061,16.061,0,0,0,34.914,64.622ZM17.585,53.931a6.537,6.537,0,1,1,6.537,6.537,6.544,6.544,0,0,1-6.537-6.537ZM10.41,73.883a13.972,13.972,0,0,1,27.424,0Zm63.546.951A16.108,16.108,0,0,0,62.691,61.179a8.665,8.665,0,1,0-9.479,0A16.108,16.108,0,0,0,41.948,74.834a1.064,1.064,0,0,0,1.058,1.177H72.9a1.064,1.064,0,0,0,1.058-1.177Zm-22.541-20.9a6.537,6.537,0,1,1,6.537,6.537,6.544,6.544,0,0,1-6.537-6.537ZM44.24,73.883a13.972,13.972,0,0,1,27.424,0ZM49.075,46.1a1.064,1.064,0,0,0,1.821-.748V40.3H64.665A4.441,4.441,0,0,0,69.1,35.867V31.849l1.844-1.844a1.064,1.064,0,0,0,.22-1.184l-.559-1.258A10.249,10.249,0,0,0,71.42,25.6l1.284-.494a1.064,1.064,0,0,0,.682-.993V21.191A1.064,1.064,0,0,0,72.7,20.2L71.42,19.7a10.242,10.242,0,0,0-.814-1.964l.559-1.258a1.064,1.064,0,0,0-.22-1.184l-2.067-2.066a1.064,1.064,0,0,0-1.184-.22l-1.258.559a10.248,10.248,0,0,0-1.963-.814l-.494-1.284a1.064,1.064,0,0,0-.993-.682H60.063a1.064,1.064,0,0,0-.993.682l-.494,1.284a10.237,10.237,0,0,0-1.963.814l-1.259-.559a1.064,1.064,0,0,0-1.184.22l-1.744,1.744H41.5a4.447,4.447,0,0,0-3.987,2.5H11.861A3.866,3.866,0,0,0,8,21.334V34.985a3.866,3.866,0,0,0,3.862,3.862H31.779v4.006A1.064,1.064,0,0,0,33.6,43.6l4.655-4.714A4.436,4.436,0,0,0,41.5,40.3h1.858Zm15.59-7.922H49.832a1.064,1.064,0,0,0-1.064,1.064v3.519l-4.213-4.267a1.064,1.064,0,0,0-.757-.316H41.934a3.86,3.86,0,0,0,1.686-3.156H57.529a1.064,1.064,0,0,0,0-2.128H43.621V30.761h9.24l1.31,1.31a1.064,1.064,0,0,0,1.184.22l1.259-.559a10.258,10.258,0,0,0,1.963.814l.494,1.284a1.064,1.064,0,0,0,.993.682h2.922a1.064,1.064,0,0,0,.993-.682l.494-1.284a10.25,10.25,0,0,0,1.964-.814l.537.238v3.895a2.311,2.311,0,0,1-2.308,2.308ZM43.621,28.634V26.5h8.327a10.239,10.239,0,0,0,.5,1.059l-.475,1.07ZM49.7,24.377H43.621V22.248h6.043v1.865A1.055,1.055,0,0,0,49.7,24.377Zm3.852-3.629a8.141,8.141,0,0,1,.99-2.387,1.064,1.064,0,0,0,.066-.99l-.482-1.086,1.033-1.033,1.086.482a1.064,1.064,0,0,0,.99-.066,8.132,8.132,0,0,1,2.386-.989,1.064,1.064,0,0,0,.747-.653l.426-1.108h1.461l.426,1.108a1.064,1.064,0,0,0,.747.653,8.137,8.137,0,0,1,2.387.989,1.064,1.064,0,0,0,.99.066l1.086-.482,1.033,1.033-.482,1.085a1.064,1.064,0,0,0,.066.99,8.131,8.131,0,0,1,.99,2.387,1.063,1.063,0,0,0,.653.747l1.107.426v1.461l-1.108.426a1.063,1.063,0,0,0-.653.747,8.143,8.143,0,0,1-.99,2.387,1.064,1.064,0,0,0-.066.99l.482,1.086L67.89,30.051,66.8,29.569a1.063,1.063,0,0,0-.99.066,8.137,8.137,0,0,1-2.387.99,1.064,1.064,0,0,0-.747.653l-.426,1.107H60.794l-.426-1.108a1.064,1.064,0,0,0-.746-.653,8.14,8.14,0,0,1-2.387-.989,1.064,1.064,0,0,0-.99-.066l-1.086.482-1.033-1.033.482-1.085a1.064,1.064,0,0,0-.066-.99,8.137,8.137,0,0,1-.99-2.387,1.063,1.063,0,0,0-.653-.746l-1.107-.426V21.921l1.107-.426a1.064,1.064,0,0,0,.653-.747ZM52.161,17.1l.283.637A10.248,10.248,0,0,0,51.63,19.7l-1.082.417H43.425A3.871,3.871,0,0,0,40.21,17.5a2.3,2.3,0,0,1,1.286-.4H52.161ZM37.092,37.036l-3.185,3.226V37.783a1.064,1.064,0,0,0-1.064-1.064H11.861a1.736,1.736,0,0,1-1.734-1.734V21.334A1.736,1.736,0,0,1,11.861,19.6h27.9a1.736,1.736,0,0,1,1.734,1.734V34.985a1.736,1.736,0,0,1-1.734,1.734h-1.91A1.064,1.064,0,0,0,37.092,37.036Zm2-8.971a1.064,1.064,0,0,1-1.064,1.064H13.593a1.064,1.064,0,1,1,0-2.128H38.028A1.064,1.064,0,0,1,39.092,28.064Zm0,4.186a1.064,1.064,0,0,1-1.064,1.064H13.593a1.064,1.064,0,1,1,0-2.128H38.028A1.064,1.064,0,0,1,39.092,32.251Zm0-8.373a1.064,1.064,0,0,1-1.064,1.064H13.593a1.064,1.064,0,1,1,0-2.128H38.028A1.064,1.064,0,0,1,39.092,23.878Zm22.433,4.892a6.118,6.118,0,1,0-6.118-6.118A6.125,6.125,0,0,0,61.525,28.769Zm0-10.108a3.99,3.99,0,1,1-3.99,3.99A3.994,3.994,0,0,1,61.525,18.662Zm-2.46,4.844a1.064,1.064,0,1,1,1.5-1.5l.28.28,1.669-1.515a1.064,1.064,0,0,1,1.43,1.576l-2.419,2.2a1.064,1.064,0,0,1-1.467-.036Z" transform="translate(-8 -10.791)" fill="#00649e"/>
</svg>
