<svg xmlns="http://www.w3.org/2000/svg" width="75.535" height="64.597" viewBox="0 0 75.535 64.597">
  <path id="Path_1818926" data-name="Path 1818926" d="M12.758,86.392a1.215,1.215,0,0,0,1,.529H26.118a1.214,1.214,0,0,0,1.214-1.214V77.4a1.214,1.214,0,0,0-1.214-1.214H17a1.214,1.214,0,0,0-1.132.773l-3.238,8.311a1.214,1.214,0,0,0,.129,1.126Zm5.071-7.783H24.9v5.883H15.537Zm63.7-15.623a20.792,20.792,0,0,0-41.579-.44H31.03a1.214,1.214,0,0,0-1.214,1.214v7.492H13.364a1.215,1.215,0,0,0-1.138.79L6.921,86.253a1.21,1.21,0,0,0-.077.425V93.1l-.713,1.395A1.214,1.214,0,0,0,6,95.043V99.99A1.214,1.214,0,0,0,7.212,101.2H12.5a6.7,6.7,0,0,0,13.216,0H55.839a6.711,6.711,0,0,0,13.234,0h6.1a1.214,1.214,0,0,0,1.214-1.214V76.665A20.721,20.721,0,0,0,81.533,62.986ZM19.1,104.37a4.29,4.29,0,1,1,4.29-4.29A4.286,4.286,0,0,1,19.1,104.37Zm10.712-5.594H25.693a6.707,6.707,0,0,0-13.162,0h-4.1V95.335L8.8,94.6c.01,0,.019,0,.029,0h3.382a1.214,1.214,0,1,0,0-2.428H9.272V86.9l4.935-13.217H29.815Zm29.718-54.1v.7a1.214,1.214,0,1,0,2.429,0v-.7a18.38,18.38,0,0,1,17.1,17.1h-.684a1.214,1.214,0,1,0,0,2.428h.684a18.388,18.388,0,0,1-17.1,17.117v-.7a1.214,1.214,0,0,0-2.429,0v.7A18.4,18.4,0,0,1,42.416,64.2h.7a1.214,1.214,0,1,0,0-2.428h-.7A18.389,18.389,0,0,1,59.533,44.673Zm2.923,59.7a4.29,4.29,0,1,1,4.29-4.29A4.3,4.3,0,0,1,62.456,104.37Zm6.589-5.594a6.717,6.717,0,0,0-13.179,0H32.244v-33.8h7.8A20.782,20.782,0,0,0,73.959,79.035V98.776H69.046ZM51.717,64.2h4.936a4.262,4.262,0,1,0,5.309-5.289V50.07a1.214,1.214,0,0,0-2.429,0v8.839a4.281,4.281,0,0,0-2.879,2.863H51.717a1.214,1.214,0,1,0,0,2.428Zm9.03-3.04A1.835,1.835,0,1,1,58.9,62.986,1.828,1.828,0,0,1,60.747,61.16Z" transform="translate(-5.998 -42.201)" fill="#00649e"/>
</svg>
