<svg xmlns="http://www.w3.org/2000/svg" width="48.805" height="66.898" viewBox="0 0 48.805 66.898">
  <g id="Group_1197857" data-name="Group 1197857" transform="translate(0 0)">
    <path id="Path_1818927" data-name="Path 1818927" d="M47.581,20.986,44.44,17.175a3.371,3.371,0,0,1-.758-1.83l-.474-4.916A5.382,5.382,0,0,0,38.376,5.6L33.46,5.124a3.378,3.378,0,0,1-1.83-.758L27.819,1.224a5.382,5.382,0,0,0-6.834,0L17.175,4.366a3.375,3.375,0,0,1-1.83.758L10.429,5.6A5.382,5.382,0,0,0,5.6,10.429l-.473,4.916a3.378,3.378,0,0,1-.758,1.83L1.224,20.986a5.382,5.382,0,0,0,0,6.834L4.366,31.63a3.378,3.378,0,0,1,.758,1.83L5.6,38.376a5.382,5.382,0,0,0,4.832,4.832l3,.289L6.295,60.556a1.3,1.3,0,0,0,1.553,1.752l6.194-1.749a.056.056,0,0,1,.065.026l3.1,5.64a1.289,1.289,0,0,0,1.137.673l.068,0a1.3,1.3,0,0,0,1.134-.8l7.537-18.012a5.354,5.354,0,0,0,.735-.508L31.63,44.44a3.37,3.37,0,0,1,1.676-.738l6.826,16.312L35.3,58.65a2.033,2.033,0,0,0-2.342.979l-2.419,4.4-3.2-7.658a.992.992,0,1,0-1.83.766l3.754,8.971a1.292,1.292,0,0,0,1.132.791l.068,0a1.289,1.289,0,0,0,1.137-.674l3.1-5.639a.057.057,0,0,1,.065-.027l6.193,1.749a1.3,1.3,0,0,0,1.554-1.753L35.371,43.5l3-.289a5.381,5.381,0,0,0,4.832-4.832l.474-4.916a3.369,3.369,0,0,1,.758-1.83l3.141-3.811a5.38,5.38,0,0,0,0-6.834ZM18.264,64.027l-2.419-4.4A2.032,2.032,0,0,0,13.5,58.65l-4.83,1.363L15.5,43.7a3.373,3.373,0,0,1,1.676.737l3.811,3.141A5.362,5.362,0,0,0,24.4,48.8c.078,0,.156,0,.234-.006ZM46.05,26.558l-3.141,3.811a5.349,5.349,0,0,0-1.2,2.9l-.473,4.916a3.394,3.394,0,0,1-3.048,3.048l-4.318.416-.051.005-.547.053a5.352,5.352,0,0,0-2.9,1.2l-3.811,3.141a3.393,3.393,0,0,1-4.31,0l-3.811-3.141a5.348,5.348,0,0,0-2.9-1.2l-.549-.053-.045,0-4.321-.416a3.394,3.394,0,0,1-3.048-3.048L7.1,33.27a5.349,5.349,0,0,0-1.2-2.9L2.755,26.558a3.394,3.394,0,0,1,0-4.31L5.9,18.437a5.349,5.349,0,0,0,1.2-2.9l.473-4.916A3.394,3.394,0,0,1,10.62,7.572L15.535,7.1a5.352,5.352,0,0,0,2.9-1.2l3.811-3.141a3.393,3.393,0,0,1,4.31,0L30.368,5.9a5.348,5.348,0,0,0,2.9,1.2l4.916.473a3.394,3.394,0,0,1,3.048,3.048l.473,4.916a5.349,5.349,0,0,0,1.2,2.9l3.141,3.811a3.4,3.4,0,0,1,0,4.31Zm0,0" transform="translate(0)" fill="#00649e"/>
    <path id="Path_1818928" data-name="Path 1818928" d="M83.653,68.156a15.65,15.65,0,0,0-1.982.126.992.992,0,0,0,.252,1.968,13.667,13.667,0,0,1,1.731-.11,13.5,13.5,0,1,1-5.53,1.179.992.992,0,0,0-.813-1.81,15.5,15.5,0,1,0,6.342-1.353Zm0,0" transform="translate(-59.251 -59.25)" fill="#00649e"/>
    <path id="Path_1818929" data-name="Path 1818929" d="M105.458,137.959a3.037,3.037,0,0,0,0,4.29l4.333,4.333a3.035,3.035,0,0,0,4.29,0l9.458-9.459a3.034,3.034,0,0,0-4.29-4.29l-7.313,7.313-2.188-2.188a3.037,3.037,0,0,0-4.29,0Zm6.478,4.583a.992.992,0,0,0,.7-.291l8.015-8.015a1.05,1.05,0,1,1,1.484,1.484l-9.458,9.459a1.05,1.05,0,0,1-1.484,0l-4.333-4.333a1.05,1.05,0,0,1,1.484-1.485l2.889,2.889a.992.992,0,0,0,.7.291Zm0,0" transform="translate(-90.907 -114.706)" fill="#00649e"/>
  </g>
</svg>
